<svg width="60" height="60" viewBox="0 0 60 60" fill="none" xmlns="http://www.w3.org/2000/svg">
<g clip-path="url(#clip0_90_121)">
<path d="M30 31.1896C41.1582 31.1896 50.2037 24.2076 50.2037 15.5948C50.2037 6.98203 41.1582 0 30 0C18.8418 0 9.79633 6.98203 9.79633 15.5948C9.79633 24.2076 18.8418 31.1896 30 31.1896Z" fill="#FFD9CB"/>
<path d="M32.9083 20.7937C32.9083 21.3807 31.6063 21.8567 30 21.8567C28.3937 21.8567 27.0918 21.3807 27.0918 20.7937C27.0918 20.2067 28.3937 19.7298 30 19.7298C31.6063 19.7298 32.9083 20.2023 32.9083 20.7937Z" fill="white"/>
<path d="M21.7347 14.0593C22.8334 14.0593 23.7241 13.3718 23.7241 12.5237C23.7241 11.6756 22.8334 10.9882 21.7347 10.9882C20.636 10.9882 19.7454 11.6756 19.7454 12.5237C19.7454 13.3718 20.636 14.0593 21.7347 14.0593Z" fill="#383F4D"/>
<path d="M38.2652 14.0593C39.3639 14.0593 40.2546 13.3718 40.2546 12.5237C40.2546 11.6756 39.3639 10.9882 38.2652 10.9882C37.1665 10.9882 36.2759 11.6756 36.2759 12.5237C36.2759 13.3718 37.1665 14.0593 38.2652 14.0593Z" fill="#383F4D"/>
<path d="M22.3469 12.5228C22.685 12.5228 22.9591 12.3113 22.9591 12.0503C22.9591 11.7893 22.685 11.5778 22.3469 11.5778C22.0088 11.5778 21.7347 11.7893 21.7347 12.0503C21.7347 12.3113 22.0088 12.5228 22.3469 12.5228Z" fill="white"/>
<path d="M38.8775 12.5228C39.2156 12.5228 39.4897 12.3113 39.4897 12.0503C39.4897 11.7893 39.2156 11.5778 38.8775 11.5778C38.5393 11.5778 38.2653 11.7893 38.2653 12.0503C38.2653 12.3113 38.5393 12.5228 38.8775 12.5228Z" fill="white"/>
<path d="M41.9385 9.21503H34.7493C34.2627 9.21617 33.7964 9.36589 33.4523 9.6315C33.1082 9.89711 32.9142 10.257 32.9127 10.6327V14.413C32.9142 14.7886 33.1082 15.1485 33.4523 15.4141C33.7964 15.6798 34.2627 15.8295 34.7493 15.8306H41.9385C42.4251 15.8295 42.8914 15.6798 43.2355 15.4141C43.5796 15.1485 43.7736 14.7886 43.775 14.413V10.6327C43.7736 10.257 43.5796 9.89711 43.2355 9.6315C42.8914 9.36589 42.4251 9.21617 41.9385 9.21503ZM42.244 13.4688C42.2425 13.8444 42.0485 14.2043 41.7044 14.4699C41.3603 14.7355 40.894 14.8853 40.4074 14.8864H36.2759C35.7892 14.8853 35.323 14.7355 34.9788 14.4699C34.6347 14.2043 34.4408 13.8444 34.4393 13.4688V11.5786C34.4408 11.203 34.6347 10.8431 34.9788 10.5775C35.323 10.3118 35.7892 10.1621 36.2759 10.161H40.4085C40.8948 10.1623 41.3606 10.3121 41.7044 10.5775C42.0483 10.8428 42.2422 11.2024 42.244 11.5777V13.4688Z" fill="#69F0AE"/>
<path d="M16.225 10.6327V14.413C16.2265 14.7886 16.4204 15.1485 16.7645 15.4141C17.1086 15.6798 17.5749 15.8295 18.0616 15.8306H25.2507C25.7373 15.8295 26.2036 15.6798 26.5477 15.4141C26.8918 15.1485 27.0858 14.7886 27.0873 14.413V10.6327C27.0858 10.257 26.8918 9.89711 26.5477 9.6315C26.2036 9.36589 25.7373 9.21617 25.2507 9.21503H18.0616C17.5749 9.21617 17.1086 9.36589 16.7645 9.6315C16.4204 9.89711 16.2265 10.257 16.225 10.6327ZM17.756 11.5777C17.7575 11.2021 17.9515 10.8422 18.2956 10.5766C18.6397 10.311 19.106 10.1613 19.5926 10.1601H23.7253C24.2119 10.1613 24.6782 10.311 25.0223 10.5766C25.3664 10.8422 25.5604 11.2021 25.5618 11.5777V13.4679C25.5604 13.8435 25.3664 14.2034 25.0223 14.4691C24.6782 14.7347 24.2119 14.8844 23.7253 14.8855H19.5915C19.1053 14.8842 18.6394 14.7345 18.2956 14.4691C17.9518 14.2037 17.7578 13.8441 17.756 13.4688V11.5777Z" fill="#69F0AE"/>
<path d="M32.6184 12.9988C31.862 12.6188 30.9789 12.4165 30.0764 12.4165C29.1739 12.4165 28.2908 12.6188 27.5344 12.9988C27.1098 13.2087 26.5313 13.2529 26.1864 13.0084L25.7539 12.6746C25.417 12.4335 25.6068 11.85 26.2763 11.5136C27.4061 10.9466 28.7248 10.6448 30.0725 10.6448C31.4201 10.6448 32.7388 10.9466 33.8687 11.5136C34.5426 11.85 34.7314 12.4344 34.391 12.6746L33.963 13.0058C33.6227 13.252 33.0442 13.2087 32.6184 12.9988Z" fill="#69F0AE"/>
<path opacity="0.2" d="M27.968 27.0901C28.1207 26.6098 28.8486 26.3965 29.4844 26.3306C30.428 26.2292 31.5468 26.3306 32.068 26.9488" fill="#BF655B"/>
<path d="M51.1506 12.6416H50.0206C49.2761 12.6416 48.6726 13.1074 48.6726 13.6821V18.6902C48.6726 19.2648 49.2761 19.7306 50.0206 19.7306H51.1506C51.8951 19.7306 52.4986 19.2648 52.4986 18.6902V13.6821C52.4986 13.1074 51.8951 12.6416 51.1506 12.6416Z" fill="#FFD9CB"/>
<path d="M9.97831 12.6407H8.84827C8.10381 12.6407 7.50031 13.1066 7.50031 13.6812V18.6893C7.50031 19.2639 8.10381 19.7298 8.84827 19.7298H9.97831C10.7228 19.7298 11.3263 19.2639 11.3263 18.6893V13.6812C11.3263 13.1066 10.7228 12.6407 9.97831 12.6407Z" fill="#FFD9CB"/>
<path d="M24.0117 38.1719L35.9692 38.1607V29.8907C35.9678 29.5151 35.7738 29.1552 35.4297 28.8896C35.0856 28.624 34.6193 28.4743 34.1326 28.4731H25.8674C25.3807 28.4743 24.9145 28.624 24.5704 28.8896C24.2263 29.1552 24.0323 29.5151 24.0308 29.8907V38.1607" fill="#FFD9CB"/>
<path opacity="0.2" d="M23.1187 3.7344C24.4666 3.50116 25.7685 4.28584 27.1479 4.31012C28.2252 4.32919 29.226 3.88353 30.2932 3.77948C31.3603 3.67544 32.4027 3.90954 33.4553 4.02746C34.5078 4.14538 35.6816 4.12023 36.4994 3.59393" fill="#BF655B"/>
<path opacity="0.2" d="M23.1187 5.152C24.4666 4.91876 25.7685 5.70345 27.1479 5.72772C28.2252 5.7468 29.226 5.30113 30.2932 5.19709C31.3603 5.09304 32.4027 5.32714 33.4553 5.44506C34.5078 5.56298 35.6816 5.53784 36.4994 5.01154" fill="#BF655B"/>
<path d="M24.0308 36.2531H21.81C9.81428 36.2531 0 43.8286 0 53.0878V58.5824C0.00148141 58.958 0.195455 59.3179 0.539564 59.5835C0.883672 59.8491 1.34996 59.9988 1.8366 60H58.1634C58.65 59.9988 59.1163 59.8491 59.4604 59.5835C59.8045 59.3179 59.9985 58.958 60 58.5824V53.0878C60 43.8286 50.1857 36.2531 38.19 36.2531H35.9692C31.81 36.8763 27.8942 36.8921 24.2364 36.2643" fill="#00B0FF"/>
</g>
<defs>
<clipPath id="clip0_90_121">
<rect width="60" height="60" fill="white"/>
</clipPath>
</defs>
</svg>
